<svg width="96" height="96" viewBox="0 0 96 96" xmlns="http://www.w3.org/2000/svg" fill="none">
  <defs>
    <linearGradient id="g" x1="14" y1="12" x2="84" y2="78" gradientUnits="userSpaceOnUse">
      <stop stop-color="#6366F1" />
      <stop offset="1" stop-color="#22D3EE" />
    </linearGradient>
  </defs>
  <rect x="10" y="10" width="76" height="76" rx="22" fill="url(#g)" />
  <path d="M32 48c0-9.94 8.06-18 18-18 2.76 0 5 2.24 5 5s-2.24 5-5 5c-4.97 0-9 4.03-9 9s4.03 9 9 9c2.76 0 5 2.24 5 5s-2.24 5-5 5c-9.94 0-18-8.06-18-18Z" fill="#0F172A" opacity="0.12" />
  <circle cx="50" cy="35" r="6" fill="#F8FAFC"/>
  <circle cx="50" cy="61" r="6" fill="#E2E8F0"/>
</svg>
